<mxfile host="app.diagrams.net" modified="2022-06-10T09:57:06.838Z" agent="5.0 (X11; Linux x86_64) AppleWebKit/537.36 (KHTML, like Gecko) Chrome/95.0.4638.54 Safari/537.36" etag="xLu8Yq1krd6zbH6G2JQP" version="19.0.3" type="github">
  <diagram name="Page-1" id="e3a06f82-3646-2815-327d-82caf3d4e204">
    <mxGraphModel dx="1317" dy="805" grid="1" gridSize="10" guides="1" tooltips="1" connect="1" arrows="1" fold="1" page="1" pageScale="1.5" pageWidth="1169" pageHeight="826" background="none" math="0" shadow="0">
      <root>
        <mxCell id="0" style=";html=1;" />
        <mxCell id="1" style=";html=1;" parent="0" />
        <mxCell id="6a7d8f32e03d9370-61" value="云服务" style="whiteSpace=wrap;html=1;fillColor=#f8cecc;fontSize=14;strokeColor=none;verticalAlign=top;" parent="1" vertex="1">
          <mxGeometry x="1218" y="112" width="370" height="274" as="geometry" />
        </mxCell>
        <mxCell id="6a7d8f32e03d9370-60" value="&lt;p style=&quot;margin-bottom: 0.25cm; direction: ltr; line-height: 15.3333px; text-align: justify; background: transparent; font-size: 10pt;&quot; align=&quot;left&quot; class=&quot;cjk&quot;&gt;&lt;font face=&quot;Liberation Sans, sans-serif&quot;&gt;&lt;font style=&quot;font-size: 12pt;&quot;&gt;&lt;span lang=&quot;en-US&quot;&gt;web-tcad-node-20220608(N)&lt;/span&gt;&lt;/font&gt;&lt;/font&gt;&lt;/p&gt;" style="whiteSpace=wrap;html=1;fillColor=#d5e8d4;fontSize=14;strokeColor=none;verticalAlign=top;" parent="1" vertex="1">
          <mxGeometry x="1140" y="600" width="450" height="290" as="geometry" />
        </mxCell>
        <mxCell id="6a7d8f32e03d9370-59" value="云负载" style="whiteSpace=wrap;html=1;fillColor=#EDEDED;fontSize=14;strokeColor=none;verticalAlign=top;" parent="1" vertex="1">
          <mxGeometry x="580" y="300" width="211" height="310" as="geometry" />
        </mxCell>
        <mxCell id="6a7d8f32e03d9370-57" value="客户端" style="whiteSpace=wrap;html=1;fillColor=#FFD470;gradientColor=none;fontSize=14;strokeColor=none;verticalAlign=top;" parent="1" vertex="1">
          <mxGeometry x="330" y="98" width="157" height="602" as="geometry" />
        </mxCell>
        <mxCell id="6a7d8f32e03d9370-35" style="edgeStyle=none;rounded=0;html=1;startSize=10;endSize=10;jettySize=auto;orthogonalLoop=1;fontSize=14;endArrow=none;endFill=0;strokeWidth=2;entryX=-0.016;entryY=0.604;entryDx=0;entryDy=0;entryPerimeter=0;" parent="1" source="6a7d8f32e03d9370-2" target="6a7d8f32e03d9370-12" edge="1">
          <mxGeometry relative="1" as="geometry">
            <mxPoint x="637" y="693.320415879017" as="targetPoint" />
          </mxGeometry>
        </mxCell>
        <mxCell id="6a7d8f32e03d9370-2" value="Client" style="verticalLabelPosition=bottom;aspect=fixed;html=1;verticalAlign=top;strokeColor=none;shape=mxgraph.citrix.laptop_2;fillColor=#66B2FF;gradientColor=#0066CC;fontSize=14;" parent="1" vertex="1">
          <mxGeometry x="352.4999999999999" y="518" width="116" height="86.5" as="geometry" />
        </mxCell>
        <mxCell id="6a7d8f32e03d9370-33" style="edgeStyle=none;rounded=0;html=1;startSize=10;endSize=10;jettySize=auto;orthogonalLoop=1;fontSize=14;endArrow=none;endFill=0;strokeWidth=2;" parent="1" source="6a7d8f32e03d9370-4" target="6a7d8f32e03d9370-12" edge="1">
          <mxGeometry relative="1" as="geometry">
            <mxPoint x="637" y="365.14650283553874" as="targetPoint" />
          </mxGeometry>
        </mxCell>
        <mxCell id="6a7d8f32e03d9370-4" value="Client" style="verticalLabelPosition=bottom;aspect=fixed;html=1;verticalAlign=top;strokeColor=none;shape=mxgraph.citrix.desktop;fillColor=#66B2FF;gradientColor=#0066CC;fontSize=14;" parent="1" vertex="1">
          <mxGeometry x="365.99999999999994" y="320.00000000000006" width="89" height="98" as="geometry" />
        </mxCell>
        <mxCell id="6a7d8f32e03d9370-32" style="edgeStyle=none;rounded=0;html=1;startSize=10;endSize=10;jettySize=auto;orthogonalLoop=1;fontSize=14;endArrow=none;endFill=0;strokeWidth=2;" parent="1" source="6a7d8f32e03d9370-5" target="6a7d8f32e03d9370-12" edge="1">
          <mxGeometry relative="1" as="geometry" />
        </mxCell>
        <mxCell id="6a7d8f32e03d9370-5" value="Client" style="verticalLabelPosition=bottom;aspect=fixed;html=1;verticalAlign=top;strokeColor=none;shape=mxgraph.citrix.desktop;fillColor=#66B2FF;gradientColor=#0066CC;fontSize=14;" parent="1" vertex="1">
          <mxGeometry x="362.00000000000006" y="156.00000000000006" width="89" height="98" as="geometry" />
        </mxCell>
        <mxCell id="6a7d8f32e03d9370-40" style="edgeStyle=none;rounded=0;html=1;startSize=10;endSize=10;jettySize=auto;orthogonalLoop=1;fontSize=14;endArrow=none;endFill=0;strokeWidth=2;exitX=0.821;exitY=0.604;exitDx=0;exitDy=0;exitPerimeter=0;" parent="1" source="6a7d8f32e03d9370-12" target="cKQ1mjBvp5bsEjXT1nAD-6" edge="1">
          <mxGeometry relative="1" as="geometry">
            <mxPoint x="713" y="694.1255144032921" as="sourcePoint" />
            <mxPoint x="767.0795663063277" y="582" as="targetPoint" />
          </mxGeometry>
        </mxCell>
        <mxCell id="6a7d8f32e03d9370-41" style="edgeStyle=none;rounded=0;html=1;startSize=10;endSize=10;jettySize=auto;orthogonalLoop=1;fontSize=14;endArrow=none;endFill=0;strokeWidth=2;exitX=0.838;exitY=0.16;exitDx=0;exitDy=0;exitPerimeter=0;" parent="1" source="6a7d8f32e03d9370-12" target="cKQ1mjBvp5bsEjXT1nAD-5" edge="1">
          <mxGeometry relative="1" as="geometry">
            <mxPoint x="713" y="529.1255144032921" as="sourcePoint" />
            <mxPoint x="780.5441611922788" y="272" as="targetPoint" />
          </mxGeometry>
        </mxCell>
        <mxCell id="6a7d8f32e03d9370-12" value="" style="verticalLabelPosition=bottom;aspect=fixed;html=1;verticalAlign=top;strokeColor=none;shape=mxgraph.citrix.xenapp_server;fillColor=#66B2FF;gradientColor=#0066CC;fontSize=14;" parent="1" vertex="1">
          <mxGeometry x="620" y="390" width="122.97" height="144" as="geometry" />
        </mxCell>
        <mxCell id="6a7d8f32e03d9370-15" value="&lt;span style=&quot;display: flex;&quot;&gt;&lt;span style=&quot;overflow: hidden; text-overflow: ellipsis;&quot; class=&quot;&quot;&gt;&lt;p style=&quot;margin-bottom: 0.25cm; direction: ltr; line-height: 15.3333px; text-align: justify; background: transparent; font-size: 10pt;&quot; align=&quot;left&quot; class=&quot;cjk&quot;&gt;&lt;font face=&quot;Liberation Sans, sans-serif&quot;&gt;&lt;font style=&quot;font-size: 12pt;&quot;&gt;&lt;span lang=&quot;en-US&quot;&gt;web-tcad-controller&lt;/span&gt;&lt;/font&gt;&lt;/font&gt;&lt;/p&gt;&lt;/span&gt;&lt;/span&gt;" style="verticalLabelPosition=top;aspect=fixed;html=1;verticalAlign=bottom;strokeColor=none;shape=mxgraph.citrix.cache_server;fillColor=#66B2FF;gradientColor=#0066CC;fontSize=14;labelPosition=center;align=center;" parent="1" vertex="1">
          <mxGeometry x="1060" y="390" width="71" height="97.5" as="geometry" />
        </mxCell>
        <mxCell id="6a7d8f32e03d9370-62" value="Web-TCAD" style="text;strokeColor=none;fillColor=none;html=1;fontSize=24;fontStyle=1;verticalAlign=middle;align=center;" parent="1" vertex="1">
          <mxGeometry x="499" y="30" width="861" height="40" as="geometry" />
        </mxCell>
        <mxCell id="cKQ1mjBvp5bsEjXT1nAD-5" value="&lt;span style=&quot;font-size: 14px;&quot;&gt;Web-Tcad-Http-Server&lt;/span&gt;" style="verticalLabelPosition=bottom;sketch=0;aspect=fixed;html=1;verticalAlign=top;strokeColor=none;align=center;outlineConnect=0;shape=mxgraph.citrix.web_server;" vertex="1" parent="1">
          <mxGeometry x="877" y="300" width="76.5" height="90" as="geometry" />
        </mxCell>
        <mxCell id="cKQ1mjBvp5bsEjXT1nAD-6" value="&lt;span style=&quot;font-size: 14px;&quot;&gt;Web-Tcad-Http-Server&lt;/span&gt;" style="verticalLabelPosition=bottom;sketch=0;aspect=fixed;html=1;verticalAlign=top;strokeColor=none;align=center;outlineConnect=0;shape=mxgraph.citrix.web_server;" vertex="1" parent="1">
          <mxGeometry x="877" y="480" width="76.5" height="90" as="geometry" />
        </mxCell>
        <mxCell id="cKQ1mjBvp5bsEjXT1nAD-10" style="edgeStyle=none;rounded=0;html=1;startSize=10;endSize=10;jettySize=auto;orthogonalLoop=1;fontSize=14;endArrow=none;endFill=0;strokeWidth=2;entryX=0.19;entryY=0.236;entryDx=0;entryDy=0;entryPerimeter=0;" edge="1" parent="1" source="cKQ1mjBvp5bsEjXT1nAD-5" target="6a7d8f32e03d9370-15">
          <mxGeometry relative="1" as="geometry">
            <mxPoint x="1013.5" y="254.00199999999995" as="sourcePoint" />
            <mxPoint x="1104.5" y="275.81947001934236" as="targetPoint" />
          </mxGeometry>
        </mxCell>
        <mxCell id="cKQ1mjBvp5bsEjXT1nAD-11" style="edgeStyle=none;rounded=0;html=1;startSize=10;endSize=10;jettySize=auto;orthogonalLoop=1;fontSize=14;endArrow=none;endFill=0;strokeWidth=2;entryX=0.007;entryY=0.728;entryDx=0;entryDy=0;entryPerimeter=0;" edge="1" parent="1" source="cKQ1mjBvp5bsEjXT1nAD-6" target="6a7d8f32e03d9370-15">
          <mxGeometry relative="1" as="geometry">
            <mxPoint x="1040" y="559.9987709497207" as="sourcePoint" />
            <mxPoint x="1143.5" y="608.1060335195532" as="targetPoint" />
          </mxGeometry>
        </mxCell>
        <mxCell id="cKQ1mjBvp5bsEjXT1nAD-15" value="" style="verticalLabelPosition=bottom;sketch=0;aspect=fixed;html=1;verticalAlign=top;strokeColor=none;align=center;outlineConnect=0;shape=mxgraph.citrix.provisioning_server;" vertex="1" parent="1">
          <mxGeometry x="1190" y="660" width="76" height="87" as="geometry" />
        </mxCell>
        <mxCell id="cKQ1mjBvp5bsEjXT1nAD-16" value="" style="verticalLabelPosition=bottom;sketch=0;aspect=fixed;html=1;verticalAlign=top;strokeColor=none;align=center;outlineConnect=0;shape=mxgraph.citrix.provisioning_server;" vertex="1" parent="1">
          <mxGeometry x="1327" y="660" width="76" height="87" as="geometry" />
        </mxCell>
        <mxCell id="cKQ1mjBvp5bsEjXT1nAD-17" value="" style="verticalLabelPosition=bottom;sketch=0;aspect=fixed;html=1;verticalAlign=top;strokeColor=none;align=center;outlineConnect=0;shape=mxgraph.citrix.provisioning_server;" vertex="1" parent="1">
          <mxGeometry x="1470" y="660" width="76" height="87" as="geometry" />
        </mxCell>
        <mxCell id="cKQ1mjBvp5bsEjXT1nAD-18" value="" style="verticalLabelPosition=bottom;sketch=0;aspect=fixed;html=1;verticalAlign=top;strokeColor=none;align=center;outlineConnect=0;shape=mxgraph.citrix.provisioning_server;" vertex="1" parent="1">
          <mxGeometry x="1190" y="770" width="76" height="87" as="geometry" />
        </mxCell>
        <mxCell id="cKQ1mjBvp5bsEjXT1nAD-19" value="" style="verticalLabelPosition=bottom;sketch=0;aspect=fixed;html=1;verticalAlign=top;strokeColor=none;align=center;outlineConnect=0;shape=mxgraph.citrix.provisioning_server;" vertex="1" parent="1">
          <mxGeometry x="1327" y="780" width="76" height="87" as="geometry" />
        </mxCell>
        <mxCell id="cKQ1mjBvp5bsEjXT1nAD-21" value="" style="verticalLabelPosition=bottom;sketch=0;aspect=fixed;html=1;verticalAlign=top;strokeColor=none;align=center;outlineConnect=0;shape=mxgraph.citrix.provisioning_server;" vertex="1" parent="1">
          <mxGeometry x="1470" y="770" width="76" height="87" as="geometry" />
        </mxCell>
        <mxCell id="cKQ1mjBvp5bsEjXT1nAD-22" style="edgeStyle=none;rounded=0;html=1;startSize=10;endSize=10;jettySize=auto;orthogonalLoop=1;fontSize=14;endArrow=none;endFill=0;strokeWidth=2;entryX=0.93;entryY=0.8;entryDx=0;entryDy=0;entryPerimeter=0;exitX=0.25;exitY=0;exitDx=0;exitDy=0;" edge="1" parent="1" source="6a7d8f32e03d9370-60" target="6a7d8f32e03d9370-15">
          <mxGeometry relative="1" as="geometry">
            <mxPoint x="1070" y="577.1606844891805" as="sourcePoint" />
            <mxPoint x="1176.9969999999998" y="530" as="targetPoint" />
          </mxGeometry>
        </mxCell>
        <mxCell id="cKQ1mjBvp5bsEjXT1nAD-24" value="Amazon S3" style="sketch=0;outlineConnect=0;fontColor=#232F3E;gradientColor=none;strokeColor=#ffffff;fillColor=#232F3E;dashed=0;verticalLabelPosition=middle;verticalAlign=bottom;align=center;html=1;whiteSpace=wrap;fontSize=10;fontStyle=1;spacing=3;shape=mxgraph.aws4.productIcon;prIcon=mxgraph.aws4.s3;" vertex="1" parent="1">
          <mxGeometry x="1251" y="136" width="80" height="100" as="geometry" />
        </mxCell>
        <mxCell id="cKQ1mjBvp5bsEjXT1nAD-25" value="Amazon MQ" style="sketch=0;outlineConnect=0;fontColor=#232F3E;gradientColor=none;strokeColor=#ffffff;fillColor=#232F3E;dashed=0;verticalLabelPosition=middle;verticalAlign=bottom;align=center;html=1;whiteSpace=wrap;fontSize=10;fontStyle=1;spacing=3;shape=mxgraph.aws4.productIcon;prIcon=mxgraph.aws4.mq;" vertex="1" parent="1">
          <mxGeometry x="1479" y="136" width="80" height="100" as="geometry" />
        </mxCell>
        <mxCell id="cKQ1mjBvp5bsEjXT1nAD-26" value="" style="sketch=0;points=[[0,0,0],[0.25,0,0],[0.5,0,0],[0.75,0,0],[1,0,0],[0,1,0],[0.25,1,0],[0.5,1,0],[0.75,1,0],[1,1,0],[0,0.25,0],[0,0.5,0],[0,0.75,0],[1,0.25,0],[1,0.5,0],[1,0.75,0]];outlineConnect=0;fontColor=#232F3E;gradientColor=#4D72F3;gradientDirection=north;fillColor=#3334B9;strokeColor=#ffffff;dashed=0;verticalLabelPosition=bottom;verticalAlign=top;align=center;html=1;fontSize=12;fontStyle=0;aspect=fixed;shape=mxgraph.aws4.resourceIcon;resIcon=mxgraph.aws4.documentdb_with_mongodb_compatibility;" vertex="1" parent="1">
          <mxGeometry x="1253" y="262" width="78" height="78" as="geometry" />
        </mxCell>
        <mxCell id="cKQ1mjBvp5bsEjXT1nAD-27" value="Elastic Load Balancing" style="sketch=0;outlineConnect=0;fontColor=#232F3E;gradientColor=none;strokeColor=#ffffff;fillColor=#232F3E;dashed=0;verticalLabelPosition=middle;verticalAlign=bottom;align=center;html=1;whiteSpace=wrap;fontSize=10;fontStyle=1;spacing=3;shape=mxgraph.aws4.productIcon;prIcon=mxgraph.aws4.elastic_load_balancing;" vertex="1" parent="1">
          <mxGeometry x="1371" y="136" width="80" height="110" as="geometry" />
        </mxCell>
        <mxCell id="cKQ1mjBvp5bsEjXT1nAD-28" style="edgeStyle=none;rounded=0;html=1;startSize=10;endSize=10;jettySize=auto;orthogonalLoop=1;fontSize=14;endArrow=none;endFill=0;strokeWidth=2;entryX=0.005;entryY=0.212;entryDx=0;entryDy=0;entryPerimeter=0;" edge="1" parent="1" source="cKQ1mjBvp5bsEjXT1nAD-5" target="6a7d8f32e03d9370-61">
          <mxGeometry relative="1" as="geometry">
            <mxPoint x="1106.47" y="282" as="sourcePoint" />
            <mxPoint x="980.0000000000002" y="150" as="targetPoint" />
          </mxGeometry>
        </mxCell>
        <mxCell id="cKQ1mjBvp5bsEjXT1nAD-29" style="edgeStyle=none;rounded=0;html=1;startSize=10;endSize=10;jettySize=auto;orthogonalLoop=1;fontSize=14;endArrow=none;endFill=0;strokeWidth=2;entryX=0.5;entryY=1;entryDx=0;entryDy=0;exitX=0.5;exitY=0;exitDx=0;exitDy=0;" edge="1" parent="1" source="6a7d8f32e03d9370-60" target="6a7d8f32e03d9370-61">
          <mxGeometry relative="1" as="geometry">
            <mxPoint x="1497.47" y="562" as="sourcePoint" />
            <mxPoint x="1371.0000000000002" y="430" as="targetPoint" />
          </mxGeometry>
        </mxCell>
      </root>
    </mxGraphModel>
  </diagram>
</mxfile>
